<?xml version="1.0" standalone="no"?>
<!DOCTYPE svg PUBLIC "-//W3C//DTD SVG 20010904//EN"
 "http://www.w3.org/TR/2001/REC-SVG-20010904/DTD/svg10.dtd">
<svg version="1.0" xmlns="http://www.w3.org/2000/svg"
 width="300.000000pt" height="300.000000pt" viewBox="0 0 300.000000 300.000000"
 preserveAspectRatio="xMidYMid meet">
<metadata>
Created by potrace 1.11, written by Peter Selinger 2001-2013
</metadata>
<g transform="translate(0.000000,300.000000) scale(0.100000,-0.100000)"
fill="#000000" stroke="none">
<path d="M0 1500 l0 -1500 1500 0 1500 0 0 1500 0 1500 -1500 0 -1500 0 0
-1500z m991 1140 c153 -29 259 -140 295 -309 9 -46 14 -139 14 -308 0 -134 2
-243 4 -243 3 0 28 25 57 55 61 64 123 106 210 141 50 20 87 27 174 31 199 9
321 -33 441 -152 80 -79 121 -152 156 -280 22 -77 22 -95 23 -555 0 -431 -2
-479 -18 -519 -27 -70 -65 -111 -126 -140 -50 -23 -69 -26 -166 -26 -143 0
-195 15 -256 74 -76 74 -79 93 -79 505 0 373 -6 435 -48 493 -34 48 -82 66
-167 61 -92 -4 -134 -31 -173 -108 l-27 -55 -5 -390 c-6 -433 -6 -427 -76
-505 -54 -59 -106 -75 -249 -75 -113 0 -123 2 -180 30 -76 38 -118 97 -134
188 -8 44 -11 368 -11 1040 l0 976 27 20 c59 47 208 71 314 51z"/>
<path d="M852 1915 c-89 -28 -82 33 -82 -670 0 -678 1 -689 57 -756 36 -43 80
-59 158 -59 80 0 124 17 157 61 53 71 53 70 50 674 -4 538 -5 562 -24 608 -27
62 -96 123 -161 142 -61 18 -98 18 -155 0z"/>
<path d="M1633 1874 c-87 -14 -169 -51 -241 -106 -69 -53 -82 -80 -82 -166 0
-92 9 -99 89 -72 66 22 163 26 222 10 20 -6 57 -28 82 -50 58 -52 98 -54 158
-7 65 49 91 107 87 189 -3 55 -9 75 -33 110 -56 79 -160 113 -282 92z"/>
</g>
</svg>
